<?xml version="1.0" encoding="UTF-8" standalone="no"?>
<!DOCTYPE svg PUBLIC "-//W3C//DTD SVG 1.1//EN"
 "http://www.w3.org/Graphics/SVG/1.1/DTD/svg11.dtd">
<!-- Generated by graphviz version 14.1.3 (20260303.0454)
 -->
<!-- Title: G Pages: 1 -->
<svg width="124pt" height="198pt"
 viewBox="0.00 0.00 124.00 198.00" xmlns="http://www.w3.org/2000/svg" xmlns:xlink="http://www.w3.org/1999/xlink">
<g id="graph0" class="graph" transform="scale(1 1) rotate(0) translate(4 194.02)">
<title>G</title>
<polygon fill="white" stroke="none" points="-4,4 -4,-194.02 119.97,-194.02 119.97,4 -4,4"/>
<!-- A -->
<g id="node1" class="node">
<title>A</title>
<ellipse fill="none" stroke="black" cx="57.98" cy="-169.52" rx="57.98" ry="20.51"/>
<text xml:space="preserve" text-anchor="middle" x="57.98" y="-166.72" font-family="Times,serif" font-size="14.00">2022 이전</text>
</g>
<!-- B -->
<g id="node2" class="node">
<title>B</title>
<ellipse fill="none" stroke="black" cx="57.98" cy="-95.01" rx="55.94" ry="18"/>
<text xml:space="preserve" text-anchor="middle" x="57.98" y="-90.34" font-family="Times,serif" font-size="14.00">ChatGPT</text>
</g>
<!-- A&#45;&gt;B -->
<g id="edge1" class="edge">
<title>A&#45;&gt;B</title>
<path fill="none" stroke="black" d="M57.98,-148.71C57.98,-141.27 57.98,-132.66 57.98,-124.58"/>
<polygon fill="black" stroke="black" points="61.48,-124.85 57.98,-114.85 54.48,-124.85 61.48,-124.85"/>
</g>
<!-- C -->
<g id="node3" class="node">
<title>C</title>
<ellipse fill="none" stroke="black" cx="57.98" cy="-20.51" rx="50.03" ry="20.51"/>
<text xml:space="preserve" text-anchor="middle" x="57.98" y="-17.71" font-family="Times,serif" font-size="14.00">CLI 시대</text>
</g>
<!-- B&#45;&gt;C -->
<g id="edge2" class="edge">
<title>B&#45;&gt;C</title>
<path fill="none" stroke="black" d="M57.98,-76.83C57.98,-69.6 57.98,-60.96 57.98,-52.67"/>
<polygon fill="black" stroke="black" points="61.48,-52.9 57.98,-42.9 54.48,-52.9 61.48,-52.9"/>
</g>
</g>
</svg>
